<?xml version="1.0" encoding="UTF-8" standalone="no"?>
<svg
   id="Layer_1"
   enable-background="new 0 0 128 128"
   height="472.4086"
   viewBox="0 0 117.21208 118.10215"
   width="468.84833"
   version="1.1"
   sodipodi:docname="crown.svg"
   inkscape:version="1.1 (c68e22c387, 2021-05-23)"
   xmlns:inkscape="http://www.inkscape.org/namespaces/inkscape"
   xmlns:sodipodi="http://sodipodi.sourceforge.net/DTD/sodipodi-0.dtd"
   xmlns="http://www.w3.org/2000/svg"
   xmlns:svg="http://www.w3.org/2000/svg">
  <defs
     id="defs45" />
  <sodipodi:namedview
     id="namedview43"
     pagecolor="#505050"
     bordercolor="#ffffff"
     borderopacity="1"
     inkscape:pageshadow="0"
     inkscape:pageopacity="0"
     inkscape:pagecheckerboard="1"
     showgrid="false"
     inkscape:zoom="0.73046875"
     inkscape:cx="196.4492"
     inkscape:cy="329.24064"
     inkscape:window-width="1920"
     inkscape:window-height="1017"
     inkscape:window-x="-8"
     inkscape:window-y="-8"
     inkscape:window-maximized="1"
     inkscape:current-layer="layer1" />
  <g
     inkscape:groupmode="layer"
     id="layer1"
     inkscape:label="Layer 1"
     transform="translate(-6.5918153,-2.419926)">
    <g
       id="g933"
       transform="matrix(0.28399904,0,0,0.28399904,6.5918153,19.868343)">
      <g
         id="g866">
	<path
   style="fill:#ed7d32"
   d="m 8,90.944 h 35.12 v 208.64 c 17.054,-2.577 34.273,-3.914 51.52,-4 24.084,-0.391 48.066,3.232 70.96,10.72 l 19.44,15.52 c -11.44,-1.28 -45.92,-1.92 -57.2,-1.92 -37.264,-0.323 -74.211,6.859 -108.64,21.12 l -11.2,4.8 z"
   id="path862" />

	<path
   style="fill:#ed7d32"
   d="m 393.44,341.024 c -34.429,-14.261 -71.376,-21.443 -108.64,-21.12 -11.36,0 -43.84,1.28 -55.2,2.56 l 17.44,-16 c 22.988,-7.573 47.08,-11.25 71.28,-10.88 17.247,0.089 34.466,1.426 51.52,4 V 90.944 h 35.12 v 254.96 z"
   id="path864" />

</g>
      <g
         id="g872">
	<path
   style="fill:#ffffff"
   d="m 193.92,319.824 c -16.88,-11.04 -48,-24 -99.36,-24 -14.204,0.055 -28.391,0.991 -42.48,2.8 l -8.96,1.12 V 73.584 l 6.24,-1.44 c 16.156,-3.584 32.652,-5.407 49.2,-5.44 31.36,0 75.12,7.28 105.76,41.84 l 2,2 v 217.44 z"
   id="path868" />

	<path
   style="fill:#ffffff"
   d="m 206.32,110.544 2,-2.24 c 30.64,-34.64 74.48,-41.84 105.76,-41.84 16.548,0.036 33.044,1.86 49.2,5.44 l 6.24,1.44 v 226.16 l -8.96,-1.12 c -14.009,-1.8 -28.116,-2.735 -42.24,-2.8 -51.6,0 -82.48,13.2 -99.36,24 l -12.4,8 z"
   id="path870" />

</g>
      <path
         style="fill:#3f2e1b"
         d="m 404.64,82.944 h -27.12 v -9.28 c 0.146,-3.673 -2.23,-6.974 -5.76,-8 -18.828,-4.934 -38.216,-7.408 -57.68,-7.36 -32,0 -75.6,7.2 -107.84,40 -32,-33.12 -75.92,-40 -107.84,-40 -19.464,-0.048 -38.852,2.426 -57.68,7.36 -3.53,1.026 -5.906,4.327 -5.76,8 v 9.2 H 8 c -4.418,0 -8,3.582 -8,8 v 255.52 c 0,4.418 3.582,8 8,8 1.374,-0.004 2.724,-0.362 3.92,-1.04 0.8,-0.4 80.8,-44.16 192.48,-16 h 1.2 0.72 c 0.638,0.077 1.282,0.077 1.92,0 112,-28.4 192,15.28 192.48,16 2.475,1.429 5.525,1.429 8,0 2.46,-1.42 3.983,-4.039 4,-6.88 V 90.944 c 0,-4.418 -3.581,-8 -8,-8 -0.026,0 -0.053,0 -0.08,0 z M 16,333.664 V 98.944 h 19.12 v 200.64 c -0.05,4.418 3.491,8.04 7.909,8.09 0.432,0.005 0.864,-0.025 1.291,-0.09 16.55,-2.527 33.259,-3.864 50,-4 23.19,-0.402 46.283,3.086 68.32,10.32 -49.765,-6.018 -100.243,0.784 -146.64,19.76 z m 182.32,-20.48 c -16.64,-10.88 -49.12,-25.52 -104,-25.52 -14.551,0.033 -29.085,0.968 -43.52,2.8 V 79.984 c 15.576,-3.47 31.482,-5.241 47.44,-5.28 29.92,0 71.2,6.88 99.84,39.2 z m 16,-199.28 c 28.64,-32 69.92,-39.2 99.84,-39.2 15.957,0.047 31.863,1.817 47.44,5.28 v 210.48 c -14.354,-1.849 -28.808,-2.811 -43.28,-2.88 -54.56,0 -87.12,14.64 -104,25.52 z m 182.32,219.76 c -46.496,-19.028 -97.09,-25.831 -146.96,-19.76 22.14,-7.26 45.343,-10.749 68.64,-10.32 16.846,0.094 33.663,1.404 50.32,3.92 4.368,0.663 8.447,-2.341 9.11,-6.709 0.065,-0.427 0.095,-0.859 0.09,-1.291 V 98.944 h 19.12 z"
         id="path874" />
      <g
         id="g876">
</g>
      <g
         id="g878">
</g>
      <g
         id="g880">
</g>
      <g
         id="g882">
</g>
      <g
         id="g884">
</g>
      <g
         id="g886">
</g>
      <g
         id="g888">
</g>
      <g
         id="g890">
</g>
      <g
         id="g892">
</g>
      <g
         id="g894">
</g>
      <g
         id="g896">
</g>
      <g
         id="g898">
</g>
      <g
         id="g900">
</g>
      <g
         id="g902">
</g>
      <g
         id="g904">
</g>
    </g>
  </g>
  <g
     inkscape:groupmode="layer"
     id="layer2"
     inkscape:label="Layer 2"
     style="display:inline"
     transform="translate(-6.5918153,-2.419926)">
    <g
       fill="#fd852b"
       id="g18"
       transform="translate(2.259996,-11.740474)">
      <path
         d="m 89.8,25.1 c -1.3,0 -2.4,-1.1 -2.4,-2.4 0,-1.3 1.1,-2.4 2.4,-2.4 1.3,0 2.4,1.1 2.4,2.4 0.1,1.4 -1,2.4 -2.4,2.4 z"
         id="path2" />
      <path
         d="m 89.8,34.1 c -1.3,0 -2.4,-1.1 -2.4,-2.4 0,-1.3 1.1,-2.4 2.4,-2.4 1.3,0 2.4,1.1 2.4,2.4 0.1,1.4 -1,2.4 -2.4,2.4 z"
         id="path4" />
      <path
         d="m 85.3,29.6 c -1.3,0 -2.4,-1.1 -2.4,-2.4 0,-1.3 1.1,-2.4 2.4,-2.4 1.3,0 2.4,1.1 2.4,2.4 0,1.4 -1,2.4 -2.4,2.4 z"
         id="path6" />
      <path
         d="m 94.3,29.6 c -1.3,0 -2.4,-1.1 -2.4,-2.4 0,-1.3 1.1,-2.4 2.4,-2.4 1.3,0 2.4,1.1 2.4,2.4 0.1,1.4 -1,2.4 -2.4,2.4 z"
         id="path8" />
      <path
         d="m 22,103.1 c -1.3,0 -2.4,-1.1 -2.4,-2.4 0,-1.3 1.1,-2.4 2.4,-2.4 1.3,0 2.4,1.1 2.4,2.4 0,1.4 -1.1,2.4 -2.4,2.4 z"
         id="path10" />
      <path
         d="m 22,112.1 c -1.3,0 -2.4,-1.1 -2.4,-2.4 0,-1.3 1.1,-2.4 2.4,-2.4 1.3,0 2.4,1.1 2.4,2.4 0,1.4 -1.1,2.4 -2.4,2.4 z"
         id="path12" />
      <path
         d="m 17.5,107.6 c -1.3,0 -2.4,-1.1 -2.4,-2.4 0,-1.3 1.1,-2.4 2.4,-2.4 1.3,0 2.4,1.1 2.4,2.4 0,1.4 -1.1,2.4 -2.4,2.4 z"
         id="path14" />
      <path
         d="m 26.5,107.6 c -1.3,0 -2.4,-1.1 -2.4,-2.4 0,-1.3 1.1,-2.4 2.4,-2.4 1.3,0 2.4,1.1 2.4,2.4 0,1.4 -1.1,2.4 -2.4,2.4 z"
         id="path16" />
    </g>
    <path
       d="m 38.702096,7.015426 4.5955,-4.5955 4.5955,4.5955 -4.5955,4.5955 z"
       fill="#fd748c"
       id="path20"
       style="stroke-width:0.999849" />
    <path
       d="m 101.892,97.493526 4.5955,-4.5955 4.5955,4.5955 -4.5955,4.595504 z"
       fill="#fd748c"
       id="path22"
       style="stroke-width:0.999849" />
    <ellipse
       cx="66.259995"
       cy="55.359524"
       fill="#fc6928"
       rx="39.299999"
       ry="16.4"
       id="ellipse24" />
    <path
       d="m 112.96,32.459526 -8.7,39.3 -1.6,7.4 c 0,3.8 -16.300004,6.9 -36.400004,6.9 -20.1,0 -36.4,-3.1 -36.4,-6.9 l -1.6,-7.4 -8.7,-39.3 30.2,18.5 16.5,-26.1 16.5,26.1 z"
       fill="#f9d12f"
       id="path26" />
    <path
       d="m 61.457696,58.150826 4.7369,-4.7369 4.7369,4.7369 -4.7369,4.7369 z"
       fill="#2ec3fc"
       id="path28"
       style="stroke-width:0.999849" />
    <path
       d="m 104.26,71.759526 -1.6,7.4 c 0,3.8 -16.300004,6.9 -36.400004,6.9 -20.1,0 -36.4,-3.1 -36.4,-6.9 l -1.6,-7.4 c 7,2.6 21.4,4.4 38,4.4 16.6,0 31,-1.8 38.000004,-4.4 z"
       fill="#fd852b"
       id="path30" />
    <circle
       cx="112.95999"
       cy="32.859524"
       fill="#fd852b"
       r="7.8000002"
       id="circle32" />
    <circle
       cx="66.259995"
       cy="24.959526"
       fill="#fc6928"
       r="7.8000002"
       id="circle34" />
    <circle
       cx="19.559996"
       cy="32.859524"
       fill="#fc6928"
       r="7.8000002"
       id="circle36" />
    <path
       d="m 66.259996,53.359526 v 4.8 h 4.8 z"
       fill="#1ba4fc"
       id="path38" />
    <path
       d="m 61.459996,58.159526 h 4.8 v 4.7 z"
       fill="#1ba4fc"
       id="path40" />
  </g>
</svg>
