<?xml version="1.0" encoding="UTF-8" standalone="no"?>
<svg
   id="Layer_1"
   enable-background="new 0 0 128 128"
   height="468.92319"
   viewBox="0 0 117.21208 117.2308"
   width="468.84833"
   version="1.1"
   sodipodi:docname="EffectivePageantry.svg"
   inkscape:version="1.1 (c68e22c387, 2021-05-23)"
   inkscape:export-filename="C:\Users\MeAndUnique\AppData\Roaming\SmiteWorks\Fantasy Grounds\extensions\EffectivePageantry\.resources\EffectivePageantry.png"
   inkscape:export-xdpi="8.1899996"
   inkscape:export-ydpi="8.1899996"
   xmlns:inkscape="http://www.inkscape.org/namespaces/inkscape"
   xmlns:sodipodi="http://sodipodi.sourceforge.net/DTD/sodipodi-0.dtd"
   xmlns="http://www.w3.org/2000/svg"
   xmlns:svg="http://www.w3.org/2000/svg">
  <defs
     id="defs45" />
  <sodipodi:namedview
     id="namedview43"
     pagecolor="#505050"
     bordercolor="#ffffff"
     borderopacity="1"
     inkscape:pageshadow="0"
     inkscape:pageopacity="0"
     inkscape:pagecheckerboard="1"
     showgrid="false"
     inkscape:zoom="0.51651941"
     inkscape:cx="157.78691"
     inkscape:cy="334.93417"
     inkscape:window-width="1284"
     inkscape:window-height="1040"
     inkscape:window-x="573"
     inkscape:window-y="27"
     inkscape:window-maximized="0"
     inkscape:current-layer="layer1"
     lock-margins="false"
     fit-margin-top="0"
     fit-margin-left="0"
     fit-margin-right="0"
     fit-margin-bottom="0" />
  <g
     inkscape:groupmode="layer"
     id="layer1"
     inkscape:label="Layer 1"
     transform="translate(-6.5918153,-3.2912799)">
    <g
       id="g933"
       transform="matrix(0.28399904,0,0,0.28399904,6.5918153,19.868343)">
      <g
         id="g866">
        <path
           style="fill:#ed7d32"
           d="m 8,90.944 h 35.12 v 208.64 c 17.054,-2.577 34.273,-3.914 51.52,-4 24.084,-0.391 48.066,3.232 70.96,10.72 l 19.44,15.52 c -11.44,-1.28 -45.92,-1.92 -57.2,-1.92 -37.264,-0.323 -74.211,6.859 -108.64,21.12 l -11.2,4.8 z"
           id="path862" />
        <path
           style="fill:#ed7d32"
           d="m 393.44,341.024 c -34.429,-14.261 -71.376,-21.443 -108.64,-21.12 -11.36,0 -43.84,1.28 -55.2,2.56 l 17.44,-16 c 22.988,-7.573 47.08,-11.25 71.28,-10.88 17.247,0.089 34.466,1.426 51.52,4 V 90.944 h 35.12 v 254.96 z"
           id="path864" />
      </g>
      <g
         id="g872">
        <path
           style="fill:#ffffff"
           d="m 193.92,319.824 c -16.88,-11.04 -48,-24 -99.36,-24 -14.204,0.055 -28.391,0.991 -42.48,2.8 l -8.96,1.12 V 73.584 l 6.24,-1.44 c 16.156,-3.584 32.652,-5.407 49.2,-5.44 31.36,0 75.12,7.28 105.76,41.84 l 2,2 v 217.44 z"
           id="path868" />
        <path
           style="fill:#ffffff"
           d="m 206.32,110.544 2,-2.24 c 30.64,-34.64 74.48,-41.84 105.76,-41.84 16.548,0.036 33.044,1.86 49.2,5.44 l 6.24,1.44 v 226.16 l -8.96,-1.12 c -14.009,-1.8 -28.116,-2.735 -42.24,-2.8 -51.6,0 -82.48,13.2 -99.36,24 l -12.4,8 z"
           id="path870" />
      </g>
      <path
         style="fill:#000000;fill-opacity:1"
         d="m 404.64,82.944 h -27.12 v -9.28 c 0.146,-3.673 -2.23,-6.974 -5.76,-8 -18.828,-4.934 -38.216,-7.408 -57.68,-7.36 -32,0 -75.6,7.2 -107.84,40 -32,-33.12 -75.92,-40 -107.84,-40 -19.464,-0.048 -38.852,2.426 -57.68,7.36 -3.53,1.026 -5.906,4.327 -5.76,8 v 9.2 H 8 c -4.418,0 -8,3.582 -8,8 v 255.52 c 0,4.418 3.582,8 8,8 1.374,-0.004 2.724,-0.362 3.92,-1.04 0.8,-0.4 80.8,-44.16 192.48,-16 h 1.2 0.72 c 0.638,0.077 1.282,0.077 1.92,0 112,-28.4 192,15.28 192.48,16 2.475,1.429 5.525,1.429 8,0 2.46,-1.42 3.983,-4.039 4,-6.88 V 90.944 c 0,-4.418 -3.581,-8 -8,-8 -0.026,0 -0.053,0 -0.08,0 z M 16,333.664 V 98.944 h 19.12 v 200.64 c -0.05,4.418 3.491,8.04 7.909,8.09 0.432,0.005 0.864,-0.025 1.291,-0.09 16.55,-2.527 33.259,-3.864 50,-4 23.19,-0.402 46.283,3.086 68.32,10.32 -49.765,-6.018 -100.243,0.784 -146.64,19.76 z m 182.32,-20.48 c -16.64,-10.88 -49.12,-25.52 -104,-25.52 -14.551,0.033 -29.085,0.968 -43.52,2.8 V 79.984 c 15.576,-3.47 31.482,-5.241 47.44,-5.28 29.92,0 71.2,6.88 99.84,39.2 z m 16,-199.28 c 28.64,-32 69.92,-39.2 99.84,-39.2 15.957,0.047 31.863,1.817 47.44,5.28 v 210.48 c -14.354,-1.849 -28.808,-2.811 -43.28,-2.88 -54.56,0 -87.12,14.64 -104,25.52 z m 182.32,219.76 c -46.496,-19.028 -97.09,-25.831 -146.96,-19.76 22.14,-7.26 45.343,-10.749 68.64,-10.32 16.846,0.094 33.663,1.404 50.32,3.92 4.368,0.663 8.447,-2.341 9.11,-6.709 0.065,-0.427 0.095,-0.859 0.09,-1.291 V 98.944 h 19.12 z"
         id="path874" />
      <g
         id="g876" />
      <g
         id="g878" />
      <g
         id="g880" />
      <g
         id="g882" />
      <g
         id="g884" />
      <g
         id="g886" />
      <g
         id="g888" />
      <g
         id="g890" />
      <g
         id="g892" />
      <g
         id="g894" />
      <g
         id="g896" />
      <g
         id="g898" />
      <g
         id="g900" />
      <g
         id="g902" />
      <g
         id="g904" />
    </g>
  </g>
  <g
     inkscape:groupmode="layer"
     id="layer3"
     inkscape:label="Layer 3"
     style="display:inline"
     transform="translate(0,-0.8713539)">
    <g
       id="g948"
       transform="matrix(0.23344861,0,0,0.23344861,2.1707778,-12.237019)">
      <path
         style="fill:#fcb129"
         d="M 241.6,355.551 H 404 v 64.8 H 241.6 Z"
         id="path865" />
      <g
         id="g871">
	<path
   style="fill:#fed14f"
   d="m 77.6,418.751 h 164 v -63.2 h -164 z"
   id="path867" />

	<path
   style="fill:#fed14f"
   d="m 77.6,355.551 -8.8,-26.4 6.4,-3.2 c 16.8,-8.8 25.6,-26.4 22.4,-44.8 -4,-20 -20.8,-34.4 -41.6,-34.4 -2.4,0 -4.8,0 -8,0.8 l -6.4,1.6 -35.2,-102.4 11.2,0.8 c 24.8,0.8 48.8,7.2 71.2,17.6 l 8,4 -4,7.2 c -4,7.2 -6.4,15.2 -6.4,23.2 0,16 7.2,30.4 20,40 8,5.6 17.6,8.8 28,8.8 15.2,0 30.4,-7.2 39.2,-20 7.2,-10.4 10.4,-23.2 8,-36 -2.4,-12.8 -8.8,-24 -19.2,-31.2 l -6.4,-4.8 4.8,-6.4 c 21.6,-30.4 47.2,-58.4 76,-82.4 l 4.8,-4 4.8,4 c 28.8,24 54.4,52 76,82.4 l 4.8,6.4 -6.4,4.8 c -12.8,8.8 -20,24 -20,39.2 0,26.4 21.6,47.2 48,47.2 27.2,0 48,-22.4 48,-48.8 0,-8 -2.4,-16 -6.4,-23.2 l -4,-7.2 8,-4 c 22.4,-11.2 46.4,-16.8 71.2,-18.4 l 12,-0.8 -35.2,100.8 -6.4,-1.6 c -2.4,-0.8 -4.8,-0.8 -7.2,-0.8 -16,0 -30.4,8.8 -37.6,23.2 -10.4,20.8 -2.4,46.4 18.4,56.8 l 6.4,3.2 -8.8,26.4 h -157.6 -8 -164 z m 164,-108.8 c -23.2,0 -42.4,19.2 -42.4,42.4 0,22.4 16.8,40.8 38.4,42.4 h 4 c 23.2,0 42.4,-19.2 42.4,-42.4 0,-24 -19.2,-42.4 -42.4,-42.4 z"
   id="path869" />

</g>
      <path
         style="fill:#fcb129"
         d="m 394.4,165.951 -8,4 4,7.2 c 4,7.2 6.4,15.2 6.4,23.2 0,26.4 -20.8,48 -48,48.8 -26.4,0 -48,-21.6 -48,-47.2 0,-16 7.2,-30.4 20,-39.2 l 6.4,-4.8 -4.8,-6.4 c -21.6,-31.2 -47.2,-58.4 -76,-82.4 l -4.8,-5.6 v 183.2 c 23.2,0 42.4,19.2 42.4,42.4 0,23.2 -19.2,42.4 -42.4,42.4 v 24 h 8 156 l 8.8,-26.4 -6.4,-3.2 c -20.8,-10.4 -28.8,-36 -18.4,-56.8 7.2,-14.4 21.6,-23.2 37.6,-23.2 2.4,0 4.8,0 7.2,0.8 l 6.4,1.6 35.2,-100.8 h -10.4 c -25.6,0.8 -48.8,7.2 -71.2,18.4 z"
         id="path873" />
      <g
         id="g881">
	<path
   style="fill:#63cdf8"
   d="m 95.2,289.151 c 0,-23.2 -20,-42.4 -44,-42.4 h -4.8 l 0.8,2.4 21.6,80 c 12.8,-8 26.4,-25.6 26.4,-40 z"
   id="path875" />

	<path
   style="fill:#63cdf8"
   d="m 384.8,289.151 c 0,16 12.8,31.2 27.2,40 l 16.8,-57.6 10.4,-27.2 h -4.8 c -27.2,0 -48.8,20 -49.6,44.8 z"
   id="path877" />

	<circle
   style="fill:#63cdf8"
   cx="241.60001"
   cy="288.35101"
   r="41.599998"
   id="circle879" />

</g>
      <path
         d="m 476.8,138.751 c -32.8,0 -65.6,8 -94.4,24 -4,2.4 -5.6,7.2 -3.2,11.2 l 0.8,0.8 c 5.6,7.2 8.8,16 8.8,24.8 0,22.4 -17.6,40 -39.2,40.8 -22.4,0 -40,-17.6 -40.8,-39.2 0,-15.2 8.8,-29.6 22.4,-36.8 4,-2.4 5.6,-7.2 3.2,-10.4 v -0.8 c -24,-36 -53.6,-68 -87.2,-95.2 -3.2,-2.4 -6.4,-2.4 -9.6,0 -34.4,27.2 -63.2,59.2 -87.2,95.2 -2.4,4 -1.6,8.8 2.4,11.2 h 0.8 c 20,9.6 28,33.6 17.6,53.6 -10.4,20 -33.6,28 -53.6,17.6 -20,-10.4 -28,-33.6 -17.6,-53.6 1.6,-2.4 3.2,-4.8 4.8,-7.2 2.4,-3.2 2.4,-8.8 -1.6,-11.2 l -0.8,-0.8 c -28.8,-16 -61.6,-24 -94.4,-24 -4.8,0 -8,3.2 -8,8 0,0.8 0,1.6 0.8,2.4 l 32.8,102.4 8,24 28,81.6 v 63.2 c 0,4.8 3.2,8 8,8 h 328 c 4.8,0 8,-3.2 8,-8 v -64 l 8.8,-24.8 18.4,-55.2 43.2,-126.4 c 1.6,-4 -0.8,-8.8 -4.8,-10.4 -1.6,0 -2.4,-0.8 -2.4,-0.8 z m -404,179.2 -20.8,-61.6 -0.8,-1.6 h 3.2 c 19.2,0 34.4,15.2 34.4,34.4 0.8,12 -5.6,22.4 -16,28.8 z m 324.8,94.4 h -312 v -18.4 h 87.2 c 4.8,0 8,-3.2 8,-8 0,-4.8 -3.2,-8 -8,-8 H 85.6 v -14.4 h 312 z m 27.2,-136.8 -14.4,42.4 c -16,-10.4 -20.8,-31.2 -11.2,-47.2 6.4,-9.6 16.8,-16 28.8,-16 h 3.2 z m 12,-36 c -27.2,-4.8 -53.6,12.8 -58.4,40 -4,21.6 6.4,43.2 26.4,53.6 l -4.8,14.4 H 83.2 l -4.8,-14.4 c 24.8,-12.8 34.4,-43.2 21.6,-67.2 -10.4,-20 -32,-30.4 -53.6,-26.4 l -28.8,-84 c 23.2,0.8 46.4,7.2 68,16.8 -4.8,8 -7.2,17.6 -7.2,27.2 0,31.2 24,56 55.2,56.8 31.2,0 56,-24 56.8,-55.2 0,-18.4 -8.8,-35.2 -23.2,-46.4 20.8,-30.4 46.4,-57.6 74.4,-80.8 28,23.2 53.6,50.4 74.4,80.8 -24.8,18.4 -30.4,52.8 -12.8,78.4 18.4,24.8 52.8,30.4 78.4,12.8 14.4,-10.4 23.2,-28 23.2,-46.4 0,-9.6 -2.4,-18.4 -7.2,-27.2 21.6,-10.4 44,-16 68,-16.8 z"
         id="path883" />
      <path
         d="m 241.6,238.751 c -28,0 -50.4,22.4 -50.4,50.4 0,28 22.4,50.4 50.4,50.4 28,0 50.4,-22.4 50.4,-50.4 0,-28 -22.4,-50.4 -50.4,-50.4 z m 0,84 c -19.2,0 -34.4,-15.2 -34.4,-34.4 0,-19.2 15.2,-34.4 34.4,-34.4 19.2,0 34.4,15.2 34.4,34.4 0,19.2 -15.2,34.4 -34.4,34.4 z"
         id="path885" />
      <g
         id="g887">
</g>
      <g
         id="g889">
</g>
      <g
         id="g891">
</g>
      <g
         id="g893">
</g>
      <g
         id="g895">
</g>
      <g
         id="g897">
</g>
      <g
         id="g899">
</g>
      <g
         id="g901">
</g>
      <g
         id="g903">
</g>
      <g
         id="g905">
</g>
      <g
         id="g907">
</g>
      <g
         id="g909">
</g>
      <g
         id="g911">
</g>
      <g
         id="g913">
</g>
      <g
         id="g915">
</g>
    </g>
  </g>
  <g
     inkscape:groupmode="layer"
     id="layer2"
     inkscape:label="Layer 2"
     style="display:none"
     transform="translate(-6.5918153,-3.2912799)">
    <g
       fill="#fd852b"
       id="g18"
       transform="translate(2.259996,-11.740474)">
      <path
         d="m 89.8,25.1 c -1.3,0 -2.4,-1.1 -2.4,-2.4 0,-1.3 1.1,-2.4 2.4,-2.4 1.3,0 2.4,1.1 2.4,2.4 0.1,1.4 -1,2.4 -2.4,2.4 z"
         id="path2" />
      <path
         d="m 89.8,34.1 c -1.3,0 -2.4,-1.1 -2.4,-2.4 0,-1.3 1.1,-2.4 2.4,-2.4 1.3,0 2.4,1.1 2.4,2.4 0.1,1.4 -1,2.4 -2.4,2.4 z"
         id="path4" />
      <path
         d="m 85.3,29.6 c -1.3,0 -2.4,-1.1 -2.4,-2.4 0,-1.3 1.1,-2.4 2.4,-2.4 1.3,0 2.4,1.1 2.4,2.4 0,1.4 -1,2.4 -2.4,2.4 z"
         id="path6" />
      <path
         d="m 94.3,29.6 c -1.3,0 -2.4,-1.1 -2.4,-2.4 0,-1.3 1.1,-2.4 2.4,-2.4 1.3,0 2.4,1.1 2.4,2.4 0.1,1.4 -1,2.4 -2.4,2.4 z"
         id="path8" />
      <path
         d="m 22,103.1 c -1.3,0 -2.4,-1.1 -2.4,-2.4 0,-1.3 1.1,-2.4 2.4,-2.4 1.3,0 2.4,1.1 2.4,2.4 0,1.4 -1.1,2.4 -2.4,2.4 z"
         id="path10" />
      <path
         d="m 22,112.1 c -1.3,0 -2.4,-1.1 -2.4,-2.4 0,-1.3 1.1,-2.4 2.4,-2.4 1.3,0 2.4,1.1 2.4,2.4 0,1.4 -1.1,2.4 -2.4,2.4 z"
         id="path12" />
      <path
         d="m 17.5,107.6 c -1.3,0 -2.4,-1.1 -2.4,-2.4 0,-1.3 1.1,-2.4 2.4,-2.4 1.3,0 2.4,1.1 2.4,2.4 0,1.4 -1.1,2.4 -2.4,2.4 z"
         id="path14" />
      <path
         d="m 26.5,107.6 c -1.3,0 -2.4,-1.1 -2.4,-2.4 0,-1.3 1.1,-2.4 2.4,-2.4 1.3,0 2.4,1.1 2.4,2.4 0,1.4 -1.1,2.4 -2.4,2.4 z"
         id="path16" />
    </g>
    <path
       d="m 38.702096,7.015426 4.5955,-4.5955 4.5955,4.5955 -4.5955,4.5955 z"
       fill="#fd748c"
       id="path20"
       style="stroke-width:0.999849" />
    <path
       d="m 101.892,97.493526 4.5955,-4.5955 4.5955,4.5955 -4.5955,4.595504 z"
       fill="#fd748c"
       id="path22"
       style="stroke-width:0.999849" />
    <ellipse
       cx="66.259995"
       cy="55.359524"
       fill="#fc6928"
       rx="39.299999"
       ry="16.4"
       id="ellipse24" />
    <path
       d="m 112.96,32.459526 -8.7,39.3 -1.6,7.4 c 0,3.8 -16.300004,6.9 -36.400004,6.9 -20.1,0 -36.4,-3.1 -36.4,-6.9 l -1.6,-7.4 -8.7,-39.3 30.2,18.5 16.5,-26.1 16.5,26.1 z"
       fill="#f9d12f"
       id="path26" />
    <path
       d="m 61.457696,58.150826 4.7369,-4.7369 4.7369,4.7369 -4.7369,4.7369 z"
       fill="#2ec3fc"
       id="path28"
       style="stroke-width:0.999849" />
    <path
       d="m 104.26,71.759526 -1.6,7.4 c 0,3.8 -16.300004,6.9 -36.400004,6.9 -20.1,0 -36.4,-3.1 -36.4,-6.9 l -1.6,-7.4 c 7,2.6 21.4,4.4 38,4.4 16.6,0 31,-1.8 38.000004,-4.4 z"
       fill="#fd852b"
       id="path30" />
    <circle
       cx="112.95999"
       cy="32.859524"
       fill="#fd852b"
       r="7.8000002"
       id="circle32" />
    <circle
       cx="66.259995"
       cy="24.959526"
       fill="#fc6928"
       r="7.8000002"
       id="circle34" />
    <circle
       cx="19.559996"
       cy="32.859524"
       fill="#fc6928"
       r="7.8000002"
       id="circle36" />
    <path
       d="m 66.259996,53.359526 v 4.8 h 4.8 z"
       fill="#1ba4fc"
       id="path38" />
    <path
       d="m 61.459996,58.159526 h 4.8 v 4.7 z"
       fill="#1ba4fc"
       id="path40" />
  </g>
</svg>
